<?xml version="1.0" standalone="no"?><!DOCTYPE svg PUBLIC "-//W3C//DTD SVG 1.1//EN" "http://www.w3.org/Graphics/SVG/1.1/DTD/svg11.dtd"><svg t="1609141502507" class="icon" viewBox="0 0 1024 1024" version="1.1" xmlns="http://www.w3.org/2000/svg" p-id="32178" xmlns:xlink="http://www.w3.org/1999/xlink" width="128" height="128"><defs><style type="text/css"></style></defs><path d="M936.584533 397.021867c-6.997333-4.949333-16.384-5.290667-23.893333-0.682667l-94.037333 58.538667c-1.706667-0.853333-3.584-1.706667-5.290667-2.389334l-1.877333-0.682666a193.194667 193.194667 0 0 0-155.136 2.389333c-1.536 0.682667-3.072 1.536-4.608 2.048l-87.722667-59.562667c-7.338667-4.949333-16.896-4.949333-24.234667 0-3.584 2.389333-6.144 5.461333-7.68 9.216-1.536 3.413333-2.218667 7.338667-1.536 11.093334-32.085333-8.874667-65.365333-13.482667-98.816-13.482667-208.725333 0-378.538667 173.226667-378.538666 386.218667 0 4.437333 0.682667 8.704 1.877333 12.458666v0.170667c0.512 19.626667 6.826667 59.221333 42.325333 95.573333 61.781333 62.976 179.541333 85.845333 350.378667 68.096 0.512 0 1.024-0.170667 1.706667-0.170666 36.352-6.314667 94.72-6.826667 109.568 8.533333 1.365333 1.365333 4.096 4.266667 2.048 13.824-2.901333 13.824 5.973333 27.477333 19.797333 30.378667 1.706667 0.341333 3.413333 0.512 5.290667 0.512 11.776 0 22.528-8.192 24.917333-20.309334 6.314667-29.866667-4.778667-49.152-15.189333-59.904-39.253333-40.618667-133.461333-27.136-154.282667-23.722666-190.293333 19.626667-271.701333-17.408-306.517333-51.882667-13.994667-13.824-21.333333-28.16-25.088-40.106667h627.370666l62.464-10.410666c0.170667 0 0.341333-0.170667 0.512-0.170667 0.512-0.170667 0.853333-0.341333 1.365334-0.512 0.853333-0.341333 1.877333-0.682667 2.730666-1.024v-0.170667c2.730667-0.853333 5.290667-1.877333 7.850667-3.072a193.4336 193.4336 0 0 0 107.52-239.445333l-0.512-1.536c-1.365333-4.096-2.901333-8.362667-4.608-12.288l-0.170667-0.170667 30.72-134.997333c1.877333-8.533333-1.365333-17.237333-8.704-22.357333z m-831.658666 376.832l1.024-9.216c0-2.389333 6.826667-233.984 252.074666-301.568 0.341333 0 29.525333-8.533333 73.045334-8.533334 36.522667 0 72.362667 5.802667 106.325333 17.408 1.536 0.512 3.242667 1.024 4.778667 1.706667l9.045333 41.984 8.021333 37.546667c-1.877333 4.096-3.413333 8.192-4.778666 12.288-7.338667 20.309333-11.093333 41.984-11.093334 64.512 0 50.176 19.285333 97.792 54.101334 133.802666 3.754667 3.754667 7.168 7.168 10.410666 10.069334H104.925867z m777.216-271.36l-2.389334 10.922666-10.922666 47.957334-3.072 12.970666v0.170667c7.338667 17.408 11.264 36.352 11.264 55.466667 0 14.506667-2.048 28.330667-6.314667 41.301333a139.349333 139.349333 0 0 1-65.877333 81.237333c-31.402667 17.578667-69.802667 22.186667-104.277334 13.141334a139.946667 139.946667 0 0 1-103.936-126.464c-0.170667-3.072-0.341333-6.144-0.341333-9.216 0-18.432 3.413333-36.010667 10.069333-52.736l-11.776-60.245334-1.365333-12.117333-1.877333-9.216-2.389334-10.922667-4.778666-22.016 24.234666 16.384 11.434667 7.68 36.864 23.552 3.242667 2.048h0.170666c3.754667-2.56 7.509333-4.778667 11.093334-6.656 8.533333-4.437333 17.749333-8.192 27.477333-10.922666 21.504-6.314667 46.250667-7.168 69.973333-1.536 15.36 3.413333 29.866667 9.557333 43.008 18.090666l47.616-30.890666 32.426667-20.138667-9.557333 42.154667z m-80.384 309.589333c-0.512 0.170667-0.853333 0.341333-1.365334 0.512l3.584-0.682667 0.512-0.853333c-0.853333 0.341333-1.877333 0.682667-2.730666 1.024z m-1.877334 0.682667c-8.021333 2.730667-16.042667 4.949333-24.746666 6.826666l-1.536 0.170667c-0.512 0.170667-1.024 0.170667-1.536 0.341333l-2.730667 0.341334c-9.898667 1.706667-19.114667 2.56-27.477333 2.730666h-4.437334l62.464-10.410666z m-131.908266-188.893867c-14.336 0-25.719467-6.0928-31.317334-11.178667a17.066667 17.066667 0 1 1 22.613334-25.565866c2.048 1.5872 9.284267 5.922133 20.974933-1.501867a17.083733 17.083733 0 0 1 18.261333 28.842667c-10.9056 6.894933-21.333333 9.403733-30.532266 9.403733z m140.680533 0c-14.336 0-25.719467-6.0928-31.317333-11.178667a17.066667 17.066667 0 1 1 22.613333-25.565866c2.030933 1.5872 9.284267 5.922133 20.974933-1.501867a17.066667 17.066667 0 0 1 18.261334 28.842667c-10.9056 6.894933-21.333333 9.403733-30.532267 9.403733z m-70.212267 85.9648a17.066667 17.066667 0 0 1-14.114133-7.4752l-13.909333-20.445867a17.083733 17.083733 0 0 1 14.114133-26.658133h27.835733a17.0496 17.0496 0 0 1 14.114134 26.6752l-13.9264 20.445867a17.117867 17.117867 0 0 1-14.114134 7.458133z m-94.993066-344.251733l0.0512 0.0512v-0.0512h-0.0512z m0 0l0.0512 0.0512v-0.0512h-0.0512z m-0.017067 0v-13.653334m55.978667-189.098666h-4.778667c-17.408 0.853333-33.962667 6.656-47.786667 16.896-13.482667-9.898667-29.525333-15.701333-45.568-16.725334-1.706667-0.170667-3.584-0.170667-6.144-0.170666-8.533333 0-16.896 1.194667-24.576 3.413333l-1.536 0.512h-0.170666c-1.024 0.341333-1.877333 0.682667-2.730667 1.024-0.512 0.170667-1.024 0.341333-1.536 0.682667-23.893333 8.704-42.666667 27.136-51.712 50.688l-1.536 4.266666c-1.706667 5.973333-3.925333 15.530667-3.413333 26.453334 0.512 18.432 7.850667 34.304 21.162666 46.08 7.168 6.485333 14.848 11.434667 23.04 16.725333 16.042667 10.069333 32.426667 20.48 52.053334 46.933333l16.213333 22.869334 4.266667 5.973333c5.461333 5.461333 13.482667 8.533333 22.186666 8.533333 2.56 0 5.290667-0.341333 7.68-1.024 0.853333 0 1.706667-0.341333 2.56-0.512 5.802667-1.877333 10.752-5.12 13.994667-9.557333l19.285333-26.453333c19.626667-26.282667 36.010667-36.693333 52.053334-46.933334 8.192-5.12 15.701333-10.069333 23.04-16.554666 13.312-11.776 20.48-27.818667 21.162666-47.274667-1.024-47.616-39.253333-85.333333-87.210666-85.845333z m-55.808 202.922666l-0.170667-0.170666h0.170667v0.170666z m93.696-101.376c-4.608 4.096-10.410667 7.850667-17.749334 12.458667-16.384 10.410667-38.741333 24.746667-63.146666 57.514667l-9.216 12.458666-4.608-6.656-1.194667-1.365333c-1.194667-1.706667-2.389333-3.242667-3.413333-4.608-24.234667-32.597333-46.592-46.933333-63.488-57.685333-6.826667-4.266667-12.629333-8.021333-17.237334-12.117334-4.437333-4.096-6.826667-9.216-6.997333-16.042666-0.341333-4.949333 0.682667-9.557333 2.048-13.653334 4.778667-12.629333 15.36-22.698667 28.16-27.136 4.778667-1.536 9.728-2.389333 14.677333-2.389333h2.56c9.045333 0.512 17.92 3.925333 25.088 9.386667l7.850667 7.509333 5.802667 6.314667c0.853333 0.853333 1.536 1.706667 1.536 1.706666l1.024 1.536c4.437333 5.461333 8.362667 11.946667 11.605333 19.456 3.413333 7.509333 11.093333 12.458667 19.456 12.458667 2.56 0 5.461333-0.512 8.704-1.877333 10.410667-4.778667 15.189333-17.237333 10.581333-27.989334a137.728 137.728 0 0 0-12.8-22.698666c5.973333-3.413333 12.8-5.461333 19.968-5.632l2.730667-0.170667c24.576 0.341333 44.544 19.626667 45.056 43.349333-0.170667 6.656-2.56 11.776-6.997333 15.872z m-84.138667 91.477334l-9.557333 9.728m-77.482667-197.802667c-0.512 0.170667-1.024 0.341333-1.536 0.682667v-0.170667l1.536-0.512z m-158.242133-3.072v0.170667h0.170666v-0.170667h-0.170666z m0 0v0.170667h0.170666v-0.170667h-0.170666z m0.1536 0v0.170667h-0.170667v-0.170667h0.170667z m-0.1536 0v0.170667h0.170666v-0.170667h-0.170666z m43.349333-159.744h-3.925333c-13.141333 0.682667-25.941333 4.949333-36.693334 12.288-10.581333-7.168-22.698667-11.434667-34.816-12.117333-6.314667-0.682667-16.725333 0.170667-24.576 2.56l-4.096 1.194666c-0.512 0.170667-1.194667 0.341333-1.706666 0.682667-18.773333 7.168-33.792 21.674667-41.130667 40.448-0.341333 0.853333-0.682667 1.706667-0.853333 2.218667l-0.512 1.706666c-1.536 4.949333-3.242667 12.629333-2.901334 21.504 0.512 15.018667 6.485333 28.16 17.408 37.888 5.802667 5.12 12.117333 9.216 18.261334 13.141334 12.117333 7.68 24.576 15.530667 39.424 35.498666l12.458666 17.749334 3.584 4.778666c4.778667 4.949333 11.946667 7.68 19.285334 7.68 0.682667 0 1.365333 0 2.048-0.170666 3.242667-0.170667 6.314667-0.853333 9.216-2.048 4.096-1.706667 7.68-4.437333 10.069333-7.68l14.848-20.309334c14.848-19.968 27.306667-27.818667 39.594667-35.669333 5.973333-3.754667 12.288-7.850667 18.090666-12.970667 10.922667-9.728 16.896-23.04 17.408-39.082666-0.853333-38.4-31.744-68.778667-70.485333-69.290667z m-43.195733 159.914667h-0.170667v-0.170667h0.170667v0.170667z m-37.5296-121.002667h1.877333c5.973333 0.341333 11.605333 2.389333 16.554667 5.802667l3.6864 3.003733 3.9936 4.164267 5.461333 6.314666c3.242667 4.096 6.144 8.874667 8.533333 14.336 4.266667 9.216 14.336 14.506667 25.770667 9.728 9.728-4.266667 14.165333-15.872 9.898667-25.770666-2.389333-5.290667-5.12-10.410667-8.192-15.018667 3.413333-1.536 7.338667-2.389333 11.264-2.56h1.706666c17.408 0.170667 31.402667 13.824 31.744 30.208-0.170667 4.437333-1.536 7.509333-4.437333 10.069333-3.413333 3.072-7.850667 5.973333-13.312 9.386667-12.8 8.192-30.378667 19.456-49.664 45.226667l-4.437333 6.144-2.048-2.730667c-0.853333-1.194667-1.877333-2.56-2.730667-3.584-19.114667-25.6-36.693333-36.864-49.834667-45.226667-5.12-3.242667-9.557333-6.144-12.970666-9.198933-2.901333-2.56-4.266667-5.632-4.437334-10.24-0.170667-3.413333 0.512-6.485333 1.365334-9.216 3.413333-8.874667 10.922667-16.042667 19.968-19.114667 3.413333-1.211733 6.8096-1.723733 10.24-1.723733" fill="#d4237a" p-id="32179"></path></svg>