<?xml version="1.0" standalone="no"?><!DOCTYPE svg PUBLIC "-//W3C//DTD SVG 1.1//EN" "http://www.w3.org/Graphics/SVG/1.1/DTD/svg11.dtd"><svg t="1608358837647" class="icon" viewBox="0 0 1074 1024" version="1.1" xmlns="http://www.w3.org/2000/svg" p-id="13890" xmlns:xlink="http://www.w3.org/1999/xlink" width="134.25" height="128"><defs><style type="text/css"></style></defs><path d="M907.783218 653.194492a383.647475 383.647475 0 0 0-48.950557-26.540066c-43.243016-19.607082-89.289443-31.425049-136.275934-36.830426a504.832 504.832 0 0 0-65.015607-3.407738 631.421902 631.421902 0 0 1 32.465836-16.283278c45.526033-21.268984 94.359082-38.173377 143.208918-50.93141a919.854164 919.854164 0 0 1 60.365639-13.681312c1.342951-0.21823 2.484459-0.419672 3.424525-0.621114 0.621115-0.100721 0.923279-0.21823 1.141508-0.21823a7.755541 7.755541 0 0 0 6.429377-8.897049 7.755541 7.755541 0 0 0-8.930623-6.446164c-0.201443 0-0.621115 0.100721-1.242229 0.201443a694.523803 694.523803 0 0 0-17.122623 3.223082c-14.503869 3.021639-30.686426 6.748328-48.010492 11.297573-49.672393 13.076984-99.344787 30.18282-145.810885 51.95541a596.689836 596.689836 0 0 0-62.111476 33.405902L591.065054 608.088131l35.369968-4.465311c0.100721 0 0.302164 0 0.621114-0.100722 0.503607-0.100721 1.141508-0.100721 1.846558-0.201442 2.081574-0.21823 4.58282-0.419672 7.386229-0.637902 23.736656-1.645115 52.576525-1.24223 84.505181 2.400525 45.425311 5.287869 90.028066 16.686164 131.60918 35.57141 16.283279 7.352656 31.945443 15.863607 46.986492 25.398557 3.625967 2.283016 8.393443 1.24223 10.77718-2.383738a7.554098 7.554098 0 0 0-2.383738-10.475016z m153.801443 17.94518a8.326295 8.326295 0 0 1 11.297574 1.762623 7.671607 7.671607 0 0 1-1.443672 10.894689c-2.081574 1.544393-4.146361 3.105574-6.328656 4.448524a104.095475 104.095475 0 0 1-41.900066 15.981115 100.939541 100.939541 0 0 1-25.297836 0.822557c-0.21823 1.762623-0.520393 3.726689-0.839344 5.808263-1.762623 10.894689-4.36459 23.01482-8.192 36.091803a334.898361 334.898361 0 0 1-55.279213 109.097967c-34.110951 44.585967-79.955934 81.718557-139.062558 108.896525-69.581639 31.945443-155.564066 49.152-259.273442 49.152-102.047475 0-186.972328-16.904393-256.251803-48.430164-58.921967-26.758295-104.951607-63.370492-139.700459-107.335344a340.404459 340.404459 0 0 1-57.444722-107.553574 281.549639 281.549639 0 0 1-9.132065-35.57141c-0.419672-2.182295-0.721836-4.028852-1.040787-5.908984-2.484459-0.302164-5.287869-0.721836-8.192-1.141508A160.566557 160.566557 0 0 1 33.740464 700.600656c-12.657311-4.683541-23.33377-10.793967-31.324328-18.784525a7.822689 7.822689 0 0 1 0-10.99541c3.021639-3.004852 7.990557-3.004852 10.99541 0 6.127213 6.227934 14.940328 11.213639 25.616787 15.141771 8.510951 3.122361 17.62623 5.287869 26.859017 6.748328 1.342951 0.201443 2.601967 0.302164 3.844196 0.503606v-6.211147c-23.652721-21.369705-41.597902-43.041574-54.557377-63.874099a180.123279 180.123279 0 0 1-11.297574-20.950032 61.742164 61.742164 0 0 1-2.484459-5.925771 23.535213 23.535213 0 0 1-0.839344-2.266229 7.755541 7.755541 0 0 1 14.722098-4.784263c0 0.21823 0.21823 0.738623 0.520394 1.561181 0.621115 1.460459 1.24223 3.105574 2.182295 5.086426 2.58518 5.707541 6.009705 12.136918 10.374295 19.18741 10.072131 16.384 23.535213 33.288393 40.758557 50.192787-0.940066-45.425311 1.443672-92.193574 6.731541-142.28564 12.338361-116.786361 42.219016-229.711738 84.438033-335.804852a1284.868197 1284.868197 0 0 1 62.212197-134.295082c7.470164-13.899541 14.302426-26.036459 20.530361-36.410754 2.182295-3.625967 4.146361-6.748328 5.808262-9.43423 0.621115-1.040787 1.141508-1.762623 1.56118-2.484459a3.911344 3.911344 0 0 1 0.503607-0.839344 7.721967 7.721967 0 0 1 11.935475-1.342951c15.14177 14.82282 30.283541 32.969443 45.425312 53.718033a778.710033 778.710033 0 0 1 53.919475 86.28459c0.520393 0.839344 1.040787 1.762623 1.460459 2.58518 32.348328-8.074492 73.022951-13.882754 111.800656-16.585442 59.425574-6.211148 122.477115-2.484459 183.447082 7.554098a704.226623 704.226623 0 0 1 46.264656 9.148853c2.786623-5.506098 5.707541-10.911475 8.712393-16.182558a661.520787 661.520787 0 0 1 63.152262-94.056918c7.554098-9.333508 14.60459-17.424787 20.950033-24.273836 2.182295-2.383738 4.146361-4.465311 5.908984-6.211147l2.182295-2.182296a7.805902 7.805902 0 0 1 12.01941 1.645115 1260.476852 1260.476852 0 0 1 107.855737 228.368787 1301.453639 1301.453639 0 0 1 54.238427 203.373115c10.072131 55.279213 15.981115 107.939672 18.465573 157.326688 1.24223 24.35777 1.56118 46.34859 1.24223 65.636722 7.369443-6.009705 14.520656-12.657311 21.470426-20.009968a292.427541 292.427541 0 0 0 35.57141-46.566819c0.721836-1.24223 1.342951-2.283016 1.863344-3.223082 0.318951-0.503607 0.520393-0.822557 0.621115-1.024a7.805902 7.805902 0 0 1 10.575738-3.02164 7.805902 7.805902 0 0 1 3.021639 10.575738c-0.520393 0.940066-1.460459 2.501246-2.80341 4.784262a304.295869 304.295869 0 0 1-37.535475 49.152 221.67082 221.67082 0 0 1-32.163672 28.537705l-0.721836 11.599738c6.110426 0.503607 13.060197 0.419672 20.647868-0.721836a89.658754 89.658754 0 0 0 35.756066-13.597377c1.77941-1.24223 3.642754-2.484459 5.405377-3.82741zM170.217841 523.566164c-12.136918 33.288393-11.616525 70.303475 2.80341 106.496a130.283016 130.283016 0 0 0 73.627279 73.325115c40.137443 15.779672 81.097443 14.621377 116.366688-1.544394l-1.56118-1.259016a185.914754 185.914754 0 0 1-26.758295-26.120394c-23.954885-28.537705-38.576262-62.648656-39.096656-102.064262-0.503607-40.120656 15.443934-74.147672 42.101508-101.929967a191.21941 191.21941 0 0 1 28.62164-24.273836 12.590164 12.590164 0 0 1 1.460459-1.040787 136.544525 136.544525 0 0 0-26.019672-10.055344 142.352787 142.352787 0 0 0-171.528394 88.466885z m813.492459 158.871082c1.225443-23.954885 1.225443-53.818754-0.53718-88.769049a1218.375344 1218.375344 0 0 0-18.247344-155.446558 1281.309377 1281.309377 0 0 0-53.617312-200.888655A1246.510164 1246.510164 0 0 0 809.798169 20.379279l-0.621115 0.621114c-6.127213 6.546885-12.858754 14.419934-20.228196 23.434492a641.410098 641.410098 0 0 0-61.70859 91.773902c-3.82741 6.94977-7.554098 14.000262-11.297574 21.151475a7.822689 7.822689 0 0 1-8.913836 3.961705c-0.100721 0-0.419672-0.117508-0.839345-0.218229a32.415475 32.415475 0 0 0-2.58518-0.621115c-2.904131-0.621115-6.328656-1.443672-10.172852-2.283016a694.75882 694.75882 0 0 0-37.334033-7.151214c-57.444721-9.43423-116.668852-13.177705-172.56918-8.091278 0 4.36459-0.302164 9.652459-0.721837 15.779672-1.040787 14.302426-3.004852 29.947803-6.211147 46.550033-8.72918 45.945705-25.012459 91.572459-50.411016 134.19436a371.057311 371.057311 0 0 1-68.540853 84.219804 155.883016 155.883016 0 0 1 29.544918 14.403147l11.717246 7.268721c40.238164 28.000525 62.850098 76.111738 62.749377 126.724197a158.048525 158.048525 0 0 1-80.073443 137.417443c-41.681836 23.635934-91.992131 27.362623-140.724459 8.192a145.609443 145.609443 0 0 1-82.339672-82.037508c-14.100984-35.57141-16.081836-71.965377-6.849049-105.572722l-4.968918 0.621115c-7.470164 0.839344-14.722098 1.460459-21.571147 1.863344-4.566033 0.318951-8.930623 0.419672-12.858755 0.419672h-1.56118a302.247869 302.247869 0 0 1-18.868459-0.940065c-0.520393 0-1.040787-0.100721-1.56118-0.100721-6.009705 59.425574-7.671607 114.184393-4.465312 167.700983 0 0.100721 0.117508 0.302164 0.117508 0.621115 0.100721 0.721836 0.201443 1.443672 0.302164 2.383738a269.04341 269.04341 0 0 0 10.156066 43.041573A327.243541 327.243541 0 0 0 151.248661 848.274885c33.288393 42.000787 77.353967 77.051803 133.976131 102.769312 67.214689 30.585705 149.856525 47.087213 249.738492 47.087213 101.527082 0 185.327213-16.702951 252.726557-47.708328 56.840393-26.13718 100.603803-61.607869 133.170361-104.229771a317.121049 317.121049 0 0 0 52.677246-104.011541c3.625967-12.338361 6.110426-23.854164 7.772328-34.127737 0.520393-3.525246 0.940066-6.731541 1.242229-9.43423 0.117508-0.940066 0.117508-1.762623 0.21823-2.383737v-0.721836-0.318951c0-0.100721 0.100721-0.302164 0.100721-0.721836 0.100721-0.621115 0.100721-1.460459 0.201443-2.383738 0.21823-2.685902 0.419672-5.908984 0.621114-9.652459z" p-id="13891"></path></svg>